<svg width="16" height="16" viewBox="0 0 16 16" fill="none" xmlns="http://www.w3.org/2000/svg">
<rect width="16" height="16" rx="2" fill="#0F0F0F"/>
<path d="M8 15C7.99994 11.255 5.05896 8.19729 1.36035 8.00977L1 8C4.8661 8 8 4.86593 8 1C8 4.74525 10.9417 7.80393 14.6406 7.99121L15 8C11.1341 8.00025 8.00006 11.1343 8 15Z" fill="url(#paint0_linear_3_122)"/>
<circle cx="3" cy="3" r="1" fill="#F6F6F6"/>
<circle cx="3" cy="13" r="1" fill="#F6F6F6"/>
<circle cx="13" cy="3" r="1" fill="#EDEDED"/>
<circle cx="13" cy="13" r="1" fill="#E6E6E6"/>
<path d="M8 4C8.00003 6.14002 9.68059 7.88726 11.7941 7.99442L12 8C9.7908 8 8 9.7909 8 12C8 9.85986 6.319 8.11204 4.20536 8.00502L4 8C6.20906 7.99986 7.99996 6.20899 8 4Z" fill="url(#paint1_linear_3_122)"/>
<defs>
<linearGradient id="paint0_linear_3_122" x1="3.5" y1="4" x2="12.5" y2="13.5" gradientUnits="userSpaceOnUse">
<stop offset="0.240385" stop-color="#F6F6F6"/>
<stop offset="0.620192" stop-color="#588A73"/>
</linearGradient>
<linearGradient id="paint1_linear_3_122" x1="10.5714" y1="10.2857" x2="5.42857" y2="4.85714" gradientUnits="userSpaceOnUse">
<stop offset="0.259615" stop-color="#D9D9D9"/>
<stop offset="0.894231" stop-color="#D8A4FC"/>
</linearGradient>
</defs>
</svg>
