<svg width="70" height="32" viewBox="0 0 70 32" fill="none" xmlns="http://www.w3.org/2000/svg">
<path d="M7 14C6.99994 10.255 4.05896 7.19729 0.360352 7.00977L0 7C3.8661 7 7 3.86593 7 0C7 3.74525 9.94174 6.80393 13.6406 6.99121L14 7C10.1341 7.00025 7.00006 10.1343 7 14Z" fill="url(#paint0_linear_3_81)"/>
<path d="M63 18C63.0001 21.745 65.941 24.8027 69.6396 24.9902L70 25C66.1339 25 63 28.1341 63 32C63 28.2547 60.0583 25.1961 56.3594 25.0088L56 25C59.8659 24.9998 62.9999 21.8657 63 18Z" fill="url(#paint1_linear_3_81)"/>
<path d="M60.7178 13.3693L57.9053 13.6761C57.8257 13.392 57.6865 13.125 57.4876 12.875C57.2945 12.625 57.0331 12.4233 56.7036 12.2699C56.374 12.1165 55.9706 12.0398 55.4933 12.0398C54.8513 12.0398 54.3115 12.179 53.874 12.4574C53.4422 12.7358 53.2291 13.0966 53.2348 13.5398C53.2291 13.9205 53.3683 14.2301 53.6524 14.4687C53.9422 14.7074 54.4195 14.9034 55.0842 15.0568L57.3172 15.5341C58.5558 15.8011 59.4763 16.2244 60.0786 16.804C60.6865 17.3835 60.9933 18.142 60.999 19.0795C60.9933 19.9034 60.7518 20.6307 60.2746 21.2614C59.803 21.8864 59.1467 22.375 58.3058 22.7273C57.4649 23.0795 56.499 23.2557 55.4081 23.2557C53.8058 23.2557 52.5161 22.9205 51.5388 22.25C50.5615 21.5739 49.9791 20.6335 49.7916 19.429L52.8001 19.1392C52.9365 19.7301 53.2263 20.1761 53.6695 20.4773C54.1126 20.7784 54.6893 20.929 55.3996 20.929C56.1325 20.929 56.7206 20.7784 57.1638 20.4773C57.6126 20.1761 57.8371 19.804 57.8371 19.3608C57.8371 18.9858 57.6922 18.6761 57.4024 18.4318C57.1183 18.1875 56.6751 18 56.0729 17.8693L53.8399 17.4006C52.5842 17.1392 51.6553 16.6989 51.053 16.0795C50.4507 15.4545 50.1524 14.6648 50.1581 13.7102C50.1524 12.9034 50.3712 12.2045 50.8143 11.6136C51.2632 11.017 51.8854 10.5568 52.6808 10.233C53.482 9.90341 54.4053 9.73863 55.4507 9.73863C56.9848 9.73863 58.1922 10.0653 59.0729 10.7187C59.9592 11.3722 60.5075 12.2557 60.7178 13.3693Z" fill="url(#paint2_linear_3_81)"/>
<path d="M42.0555 23V9.90909H45.047V12.0909H45.1834C45.422 11.3352 45.8311 10.7528 46.4107 10.3437C46.9959 9.92898 47.6635 9.72159 48.4135 9.72159C48.5839 9.72159 48.7743 9.73011 48.9845 9.74716C49.2004 9.75852 49.3794 9.77841 49.5215 9.80682V12.6449C49.3908 12.5994 49.1834 12.5597 48.8993 12.5256C48.6209 12.4858 48.351 12.4659 48.0896 12.4659C47.5271 12.4659 47.0214 12.5881 46.5726 12.8324C46.1294 13.071 45.78 13.4034 45.5243 13.8295C45.2686 14.2557 45.1408 14.7472 45.1408 15.304V23H42.0555Z" fill="url(#paint3_linear_3_81)"/>
<path d="M33.2413 23.2642C32.4118 23.2642 31.6646 23.1165 30.9999 22.821C30.3408 22.5199 29.818 22.0767 29.4317 21.4915C29.051 20.9062 28.8607 20.1847 28.8607 19.3267C28.8607 18.5881 28.997 17.9773 29.2697 17.4943C29.5425 17.0114 29.9146 16.625 30.3862 16.3352C30.8578 16.0455 31.3891 15.8267 31.98 15.679C32.5766 15.5256 33.193 15.4148 33.8294 15.3466C34.5965 15.267 35.2186 15.196 35.6959 15.1335C36.1732 15.0653 36.5197 14.9631 36.7357 14.8267C36.9572 14.6847 37.068 14.4659 37.068 14.1705V14.1193C37.068 13.4773 36.8777 12.9801 36.497 12.6278C36.1163 12.2756 35.568 12.0994 34.8521 12.0994C34.0964 12.0994 33.497 12.2642 33.0538 12.5937C32.6163 12.9233 32.3209 13.3125 32.1675 13.7614L29.2868 13.3523C29.5141 12.5568 29.8891 11.892 30.4118 11.358C30.9345 10.8182 31.5737 10.4148 32.3294 10.1477C33.0851 9.875 33.9203 9.73863 34.8351 9.73863C35.4658 9.73863 36.0936 9.8125 36.7186 9.96022C37.3436 10.108 37.9146 10.3523 38.4317 10.6932C38.9487 11.0284 39.3635 11.4858 39.676 12.0653C39.9942 12.6449 40.1533 13.3693 40.1533 14.2386V23H37.1874V21.2017H37.0851C36.8976 21.5653 36.6334 21.9062 36.2925 22.2244C35.9572 22.5369 35.534 22.7898 35.0226 22.983C34.5169 23.1705 33.9232 23.2642 33.2413 23.2642ZM34.0425 20.9972C34.6618 20.9972 35.1987 20.875 35.6533 20.6307C36.1078 20.3807 36.4572 20.0511 36.7016 19.642C36.9516 19.233 37.0766 18.7869 37.0766 18.304V16.7614C36.98 16.8409 36.8152 16.9148 36.5822 16.983C36.355 17.0511 36.0993 17.1108 35.8152 17.1619C35.5311 17.2131 35.2499 17.2585 34.9714 17.2983C34.693 17.3381 34.4516 17.3722 34.247 17.4006C33.7868 17.4631 33.3749 17.5653 33.0112 17.7074C32.6476 17.8494 32.3607 18.0483 32.1504 18.304C31.9402 18.554 31.8351 18.8778 31.8351 19.2756C31.8351 19.8437 32.0425 20.2727 32.4572 20.5625C32.872 20.8523 33.4004 20.9972 34.0425 20.9972Z" fill="url(#paint4_linear_3_81)"/>
<path d="M28.094 9.90909V12.2955H20.5685V9.90909H28.094ZM22.4264 6.77273H25.5116V19.0625C25.5116 19.4773 25.5741 19.7955 25.6991 20.017C25.8298 20.233 26.0003 20.3807 26.2105 20.4602C26.4207 20.5398 26.6537 20.5795 26.9094 20.5795C27.1026 20.5795 27.2787 20.5653 27.4378 20.5369C27.6026 20.5085 27.7276 20.483 27.8128 20.4602L28.3327 22.8722C28.1679 22.929 27.9321 22.9915 27.6253 23.0597C27.3241 23.1278 26.9548 23.1676 26.5173 23.179C25.7446 23.2017 25.0486 23.0852 24.4293 22.8295C23.8099 22.5682 23.3185 22.1648 22.9548 21.6193C22.5969 21.0739 22.4207 20.392 22.4264 19.5739V6.77273Z" fill="url(#paint5_linear_3_81)"/>
<path d="M19.9318 13.3693L17.1193 13.6761C17.0398 13.392 16.9006 13.125 16.7017 12.875C16.5085 12.625 16.2472 12.4233 15.9176 12.2699C15.5881 12.1165 15.1847 12.0398 14.7074 12.0398C14.0653 12.0398 13.5256 12.179 13.0881 12.4574C12.6562 12.7358 12.4432 13.0966 12.4489 13.5398C12.4432 13.9205 12.5824 14.2301 12.8665 14.4687C13.1563 14.7074 13.6335 14.9034 14.2983 15.0568L16.5312 15.5341C17.7699 15.8011 18.6903 16.2244 19.2926 16.804C19.9006 17.3835 20.2074 18.142 20.2131 19.0795C20.2074 19.9034 19.9659 20.6307 19.4886 21.2614C19.017 21.8864 18.3608 22.375 17.5199 22.7273C16.679 23.0795 15.7131 23.2557 14.6222 23.2557C13.0199 23.2557 11.7301 22.9205 10.7528 22.25C9.77557 21.5739 9.19318 20.6335 9.00568 19.429L12.0142 19.1392C12.1506 19.7301 12.4403 20.1761 12.8835 20.4773C13.3267 20.7784 13.9034 20.929 14.6136 20.929C15.3466 20.929 15.9347 20.7784 16.3778 20.4773C16.8267 20.1761 17.0511 19.804 17.0511 19.3608C17.0511 18.9858 16.9063 18.6761 16.6165 18.4318C16.3324 18.1875 15.8892 18 15.2869 17.8693L13.054 17.4006C11.7983 17.1392 10.8693 16.6989 10.267 16.0795C9.66477 15.4545 9.36648 14.6648 9.37216 13.7102C9.36648 12.9034 9.58523 12.2045 10.0284 11.6136C10.4773 11.017 11.0994 10.5568 11.8949 10.233C12.696 9.90341 13.6193 9.73863 14.6648 9.73863C16.1989 9.73863 17.4062 10.0653 18.2869 10.7187C19.1733 11.3722 19.7216 12.2557 19.9318 13.3693Z" fill="url(#paint6_linear_3_81)"/>
<defs>
<linearGradient id="paint0_linear_3_81" x1="2.5" y1="3" x2="11.5" y2="12.5" gradientUnits="userSpaceOnUse">
<stop offset="0.240385" stop-color="#D9D9D9"/>
<stop offset="0.620192" stop-color="#588A73"/>
</linearGradient>
<linearGradient id="paint1_linear_3_81" x1="67.5" y1="29" x2="58.5" y2="19.5" gradientUnits="userSpaceOnUse">
<stop offset="0.240385" stop-color="#D9D9D9"/>
<stop offset="0.620192" stop-color="#D8A4FC"/>
</linearGradient>
<linearGradient id="paint2_linear_3_81" x1="89.9474" y1="17" x2="13.6839" y2="16.5512" gradientUnits="userSpaceOnUse">
<stop offset="0.389423" stop-color="#D0A7EB"/>
<stop offset="0.735577" stop-color="#B1CCCC"/>
<stop offset="1" stop-color="#618575"/>
</linearGradient>
<linearGradient id="paint3_linear_3_81" x1="89.9474" y1="17" x2="13.6839" y2="16.5512" gradientUnits="userSpaceOnUse">
<stop offset="0.389423" stop-color="#D0A7EB"/>
<stop offset="0.735577" stop-color="#B1CCCC"/>
<stop offset="1" stop-color="#618575"/>
</linearGradient>
<linearGradient id="paint4_linear_3_81" x1="89.9474" y1="17" x2="13.6839" y2="16.5512" gradientUnits="userSpaceOnUse">
<stop offset="0.389423" stop-color="#D0A7EB"/>
<stop offset="0.735577" stop-color="#B1CCCC"/>
<stop offset="1" stop-color="#618575"/>
</linearGradient>
<linearGradient id="paint5_linear_3_81" x1="89.9474" y1="17" x2="13.6839" y2="16.5512" gradientUnits="userSpaceOnUse">
<stop offset="0.389423" stop-color="#D0A7EB"/>
<stop offset="0.735577" stop-color="#B1CCCC"/>
<stop offset="1" stop-color="#618575"/>
</linearGradient>
<linearGradient id="paint6_linear_3_81" x1="89.9474" y1="17" x2="13.6839" y2="16.5512" gradientUnits="userSpaceOnUse">
<stop offset="0.389423" stop-color="#D0A7EB"/>
<stop offset="0.735577" stop-color="#B1CCCC"/>
<stop offset="1" stop-color="#618575"/>
</linearGradient>
</defs>
</svg>
